# This file uses centimeters as units for non-parametric coordinates.

mtllib Grass_lil_dirt_square.mtl
g default
v -61.879951 2.087984 -301.861908
v 38.120049 2.087984 -301.861908
v -61.879951 3.087984 -301.861908
v 38.120049 3.087984 -301.861908
v -61.879951 3.087984 -401.861908
v 38.120049 3.087984 -401.861908
v -61.879951 2.087984 -401.861908
v 38.120049 2.087984 -401.861908
v 38.120049 3.087984 -393.425079
v -61.879951 3.087984 -393.425079
v -61.879951 2.087984 -393.425079
v 38.120049 2.087984 -393.425079
v -52.857613 3.087984 -401.861908
v -52.857613 2.087984 -401.861908
v -52.857613 2.087984 -393.425079
v -52.857613 2.087984 -301.861908
v -52.857613 3.087984 -301.861908
v -52.857613 3.087984 -393.425079
vt 0.001389 0.666003
vt 0.001389 0.333997
vt 0.023780 0.666003
vt 0.023780 0.333997
vt 0.028132 0.450527
vt 0.028132 0.004574
vt 0.053664 0.450527
vt 0.053664 0.004574
vt 0.572151 0.411250
vt 0.573042 0.096964
vt 0.001389 0.001992
vt 0.023780 0.001992
vt 0.001389 0.998008
vt 0.023780 0.998008
vt 0.205554 0.533042
vt 0.206702 0.207150
vt 0.526997 0.211562
vt 0.525909 0.528820
vt 0.881674 0.101748
vt 0.880423 0.407179
vt 0.499975 0.211190
vt 0.023780 0.030003
vt 0.023780 0.969997
vt 0.498881 0.529176
vt 0.001389 0.969997
vt 0.598159 0.410907
vt 0.599080 0.097368
vt 0.001389 0.030003
vt 0.028132 0.410291
vt 0.526007 0.500196
vt 0.572231 0.382894
vt 0.053664 0.410291
vt 0.598242 0.382618
vt 0.001389 0.636048
vt 0.880536 0.379622
vt 0.205657 0.503639
vt 0.023780 0.636048
vt 0.498980 0.500486
vn 0.000000 0.000000 1.000000
vn 0.000000 0.000000 1.000000
vn 0.000000 0.000000 1.000000
vn 0.000000 0.000000 1.000000
vn 0.000000 1.000000 0.000000
vn 0.000000 1.000000 0.000000
vn 0.000000 1.000000 0.000000
vn 0.000000 1.000000 0.000000
vn 0.000000 0.000000 -1.000000
vn 0.000000 0.000000 -1.000000
vn 0.000000 0.000000 -1.000000
vn 0.000000 0.000000 -1.000000
vn 0.000000 -1.000000 0.000000
vn 0.000000 -1.000000 0.000000
vn 0.000000 -1.000000 0.000000
vn 0.000000 -1.000000 0.000000
vn 1.000000 0.000000 0.000000
vn 1.000000 0.000000 0.000000
vn 1.000000 0.000000 0.000000
vn 1.000000 0.000000 0.000000
vn -1.000000 0.000000 0.000000
vn -1.000000 0.000000 0.000000
vn -1.000000 0.000000 0.000000
vn -1.000000 0.000000 0.000000
vn 0.000000 1.000000 0.000000
vn 0.000000 1.000000 0.000000
vn -1.000000 0.000000 0.000000
vn -1.000000 0.000000 0.000000
vn 0.000000 -1.000000 0.000000
vn 0.000000 -1.000000 0.000000
vn 1.000000 0.000000 0.000000
vn 1.000000 0.000000 0.000000
vn 0.000000 0.000000 -1.000000
vn 0.000000 0.000000 -1.000000
vn 0.000000 -1.000000 0.000000
vn 0.000000 -1.000000 0.000000
vn 0.000000 -1.000000 0.000000
vn 0.000000 0.000000 1.000000
vn 0.000000 0.000000 1.000000
vn 0.000000 1.000000 0.000000
vn 0.000000 1.000000 0.000000
vn 0.000000 1.000000 0.000000
s 1
g Floor_lil_square
usemtl blinn2SG
f 1/1/1 16/34/2 17/37/3 3/3/4
s 2
f 3/15/5 17/36/6 18/38/7 10/24/8
s 3
f 5/5/9 13/29/10 14/32/11 7/7/12
s 4
f 11/26/13 15/33/14 16/35/15 1/20/16
s 5
f 2/2/17 12/28/18 9/22/19 4/4/20
s 6
f 11/25/21 1/1/22 3/3/23 10/23/24
s 2
f 10/24/8 18/38/7 13/30/25 5/18/26
s 6
f 7/13/27 11/25/21 10/23/24 5/14/28
s 4
f 7/9/29 14/31/30 15/33/14 11/26/13
s 5
f 9/22/19 12/28/18 8/11/31 6/12/32
s 3
f 13/29/10 6/6/33 8/8/34 14/32/11
s 4
f 15/33/14 14/31/30 8/10/35 12/27/36
f 16/35/15 15/33/14 12/27/36 2/19/37
s 1
f 17/37/3 16/34/2 2/2/38 4/4/39
s 2
f 18/38/7 17/36/6 4/16/40 9/21/41
f 13/30/25 18/38/7 9/21/41 6/17/42
