# This file uses centimeters as units for non-parametric coordinates.

mtllib Grass_corner.mtl
g default
v -61.879951 2.087984 -184.573792
v 38.120049 2.087984 -184.573792
v -61.879951 3.087984 -184.573792
v 38.120049 3.087984 -184.573792
v -61.879951 3.087984 -284.573792
v 38.120049 3.087984 -284.573792
v -61.879951 2.087984 -284.573792
v 38.120049 2.087984 -284.573792
v 38.120049 3.087984 -276.136963
v -61.879951 3.087984 -276.136963
v -61.879951 2.087984 -276.136963
v 38.120049 2.087984 -276.136963
v -52.857613 3.087984 -284.573792
v -52.857613 2.087984 -284.573792
v -52.857613 2.087984 -276.136963
v -52.857613 2.087984 -184.573792
v -52.857613 3.087984 -184.573792
v -52.857613 3.087984 -276.136963
vt 0.001389 0.666003
vt 0.001389 0.333997
vt 0.023780 0.666003
vt 0.023780 0.333997
vt 0.028132 0.450527
vt 0.028132 0.004574
vt 0.053664 0.450527
vt 0.053664 0.004574
vt 0.102493 0.433348
vt 0.103384 0.119062
vt 0.001389 0.001992
vt 0.023780 0.001992
vt 0.001389 0.998008
vt 0.023780 0.998008
vt 0.660577 0.529052
vt 0.661726 0.203161
vt 0.982021 0.207573
vt 0.980932 0.524831
vt 0.412016 0.123846
vt 0.410766 0.429277
vt 0.953812 0.207201
vt 0.022594 0.030003
vt 0.023780 0.969997
vt 0.953904 0.525187
vt 0.001389 0.969997
vt 0.128501 0.433005
vt 0.129423 0.119465
vt 0.001389 0.030003
vt 0.028132 0.410291
vt 0.981030 0.496207
vt 0.102573 0.404992
vt 0.053664 0.410291
vt 0.128585 0.404716
vt 0.001389 0.636048
vt 0.410878 0.401720
vt 0.660681 0.499938
vt 0.023780 0.636336
vt 0.954003 0.500088
vn 0.000000 0.000000 1.000000
vn 0.000000 0.000000 1.000000
vn 0.000000 0.000000 1.000000
vn 0.000000 0.000000 1.000000
vn 0.000000 1.000000 0.000000
vn 0.000000 1.000000 0.000000
vn 0.000000 1.000000 0.000000
vn 0.000000 1.000000 0.000000
vn 0.000000 0.000000 -1.000000
vn 0.000000 0.000000 -1.000000
vn 0.000000 0.000000 -1.000000
vn 0.000000 0.000000 -1.000000
vn 0.000000 -1.000000 0.000000
vn 0.000000 -1.000000 0.000000
vn 0.000000 -1.000000 0.000000
vn 0.000000 -1.000000 0.000000
vn 1.000000 0.000000 0.000000
vn 1.000000 0.000000 0.000000
vn 1.000000 0.000000 0.000000
vn 1.000000 0.000000 0.000000
vn -1.000000 0.000000 0.000000
vn -1.000000 0.000000 0.000000
vn -1.000000 0.000000 0.000000
vn -1.000000 0.000000 0.000000
vn 0.000000 1.000000 0.000000
vn 0.000000 1.000000 0.000000
vn -1.000000 0.000000 0.000000
vn -1.000000 0.000000 0.000000
vn 0.000000 -1.000000 0.000000
vn 0.000000 -1.000000 0.000000
vn 1.000000 0.000000 0.000000
vn 1.000000 0.000000 0.000000
vn 0.000000 0.000000 -1.000000
vn 0.000000 0.000000 -1.000000
vn 0.000000 -1.000000 0.000000
vn 0.000000 -1.000000 0.000000
vn 0.000000 -1.000000 0.000000
vn 0.000000 0.000000 1.000000
vn 0.000000 0.000000 1.000000
vn 0.000000 1.000000 0.000000
vn 0.000000 1.000000 0.000000
vn 0.000000 1.000000 0.000000
s 1
g Floor_corner
usemtl Grassfloor_highpoly:blinn2SG
f 1/1/1 16/34/2 17/37/3 3/3/4
s 2
f 3/15/5 17/36/6 18/38/7 10/24/8
s 3
f 5/5/9 13/29/10 14/32/11 7/7/12
s 4
f 11/26/13 15/33/14 16/35/15 1/20/16
s 5
f 2/2/17 12/28/18 9/22/19 4/4/20
s 6
f 11/25/21 1/1/22 3/3/23 10/23/24
s 2
f 10/24/8 18/38/7 13/30/25 5/18/26
s 6
f 7/13/27 11/25/21 10/23/24 5/14/28
s 4
f 7/9/29 14/31/30 15/33/14 11/26/13
s 5
f 9/22/19 12/28/18 8/11/31 6/12/32
s 3
f 13/29/10 6/6/33 8/8/34 14/32/11
s 4
f 15/33/14 14/31/30 8/10/35 12/27/36
f 16/35/15 15/33/14 12/27/36 2/19/37
s 1
f 17/37/3 16/34/2 2/2/38 4/4/39
s 2
f 18/38/7 17/36/6 4/16/40 9/21/41
f 13/30/25 18/38/7 9/21/41 6/17/42
