# This file uses centimeters as units for non-parametric coordinates.

mtllib Single_candle.mtl
g default
v 1.417022 8.816957 2.751292
v 0.232802 10.342331 2.324242
v -0.753846 10.646993 2.520050
v -1.339221 11.665710 3.493711
v -1.484538 12.077997 4.530625
v -1.062812 11.993202 5.466039
v -0.235128 9.784458 6.171525
v 0.856588 9.105883 5.986566
v 1.647171 8.596640 5.197839
v 2.287104 7.255448 3.987824
v 1.274291 9.172775 2.799702
v 0.234742 10.216242 2.396936
v -0.723850 10.491161 2.584313
v -1.303204 11.428286 3.510666
v -1.434311 11.799162 4.521889
v -1.022188 11.640165 5.434126
v -0.224250 9.698184 6.093787
v 0.824255 9.122503 5.931004
v 1.575840 8.515327 5.164588
v 2.018099 7.828399 3.973332
v 1.182622 0.324644 2.987126
v 0.260057 0.351387 2.484099
v -0.762131 0.373884 2.659478
v -1.494028 0.376359 3.446987
v -1.655946 0.382823 4.546982
v -1.186040 0.381072 5.539300
v -0.263796 0.348114 6.045702
v 0.758564 0.337189 5.871482
v 1.491753 0.316680 5.084463
v 1.656253 0.296460 3.981795
v 1.445487 8.575647 2.731421
v 0.237293 10.288640 2.294268
v -0.764028 10.615207 2.497468
v -1.359203 11.643566 3.482204
v -1.506688 12.057989 4.534589
v -1.078670 11.977818 5.483961
v -0.238636 9.714174 6.181620
v 0.855883 9.023262 5.979499
v 1.673650 8.509806 5.211145
v 2.358347 6.930569 3.997659
v 1.266257 9.098063 2.851900
v 0.261883 9.926052 2.472723
v -0.682199 10.363844 2.669889
v -1.290016 11.101994 3.506906
v -1.388790 11.358751 4.514505
v -0.975601 11.131611 5.423474
v -0.208274 9.470463 6.012043
v 0.786849 8.955542 5.867030
v 1.523607 8.390988 5.134614
v 1.912079 7.866050 3.965442
v 1.601877 8.141044 5.182794
v 0.805118 8.875927 5.952631
v -0.242451 9.542199 6.166473
v -1.083030 11.658846 5.502259
v -1.520401 11.799150 4.540187
v -1.380934 11.402439 3.470455
v -0.783555 10.367325 2.481724
v 0.235544 9.979258 2.350590
v 1.311664 8.359142 2.776050
v 2.224334 6.717089 3.953379
v 1.499351 7.780415 5.144549
v 0.743544 8.733225 5.916179
v -0.247529 9.354928 6.117150
v -1.059202 11.151814 5.520780
v -1.504061 11.293007 4.544358
v -1.406733 10.886756 3.459077
v -0.782205 10.064198 2.552594
v 0.235782 9.577682 2.432272
v 1.156530 8.222824 2.821810
v 1.912592 6.730838 3.905632
v 1.744823 7.675686 3.956803
v 1.460600 8.102358 5.053404
v 0.725556 8.599176 5.763481
v -0.209010 9.053036 5.892316
v -0.966839 9.920603 5.409478
v -1.387979 10.177740 4.497990
v -1.311570 10.089136 3.487597
v -0.655628 9.688636 2.764236
v 0.284374 9.122393 2.559950
v 1.254684 8.574425 2.949795
v 0.618384 7.352849 3.511200
v 0.109667 7.508979 3.231125
v -0.454250 7.682052 3.327632
v -0.847436 7.805957 3.763860
v -0.916924 7.833367 4.373184
v -0.657720 7.753815 4.922863
v -0.179365 7.597686 5.202938
v 0.384552 7.424613 5.106431
v 0.788272 7.300707 4.670203
v 0.877588 7.273296 4.060879
v -0.931204 8.172134 3.717444
v -0.497746 8.035538 3.236536
v 0.123929 7.844740 3.130145
v 0.684751 7.672616 3.438907
v 0.970504 7.584917 4.044886
v 0.872040 7.615137 4.716618
v 0.426969 7.751733 5.197526
v -0.194706 7.942532 5.303918
v -0.722056 8.114654 4.995155
v -1.007809 8.202353 4.389178
v 0.002630 7.543365 4.181942
v -0.022659 7.551127 4.168020
v -0.050693 7.559731 4.172817
v -0.070239 7.565890 4.194503
v -0.073693 7.567254 4.224794
v -0.060808 7.563298 4.252120
v -0.037028 7.555537 4.266042
v -0.008994 7.546933 4.261246
v 0.011075 7.540773 4.239560
v 0.015515 7.539411 4.209269
v 0.037513 9.298165 4.114474
v 0.018960 9.318746 4.107044
v -0.001606 9.318571 4.111213
v -0.015945 9.297705 4.125391
v -0.018479 9.264118 4.144160
v -0.009026 9.230639 4.160354
v 0.008419 9.210058 4.167784
v 0.028985 9.210234 4.163614
v 0.043709 9.231100 4.149437
v 0.046966 9.264687 4.130667
v 0.081731 8.756287 4.084374
v 0.077292 8.722038 4.111110
v 0.057222 8.702062 4.131014
v 0.029188 8.703987 4.136480
v 0.005408 8.727076 4.125424
v -0.007477 8.762514 4.102065
v -0.004023 8.796761 4.075329
v 0.015523 8.816738 4.055426
v 0.043557 8.814814 4.049960
v 0.068847 8.791725 4.061017
v 0.052832 8.132463 4.165848
v 0.032763 8.125363 4.186629
v 0.004729 8.130579 4.191766
v -0.019051 8.146116 4.179298
v -0.031936 8.166046 4.153985
v -0.028482 8.182751 4.125498
v -0.008936 8.189852 4.104716
v 0.019098 8.184637 4.099579
v 0.044387 8.169099 4.112048
v 0.057272 8.149170 4.137361
vt 0.818979 0.239121
vt 0.173202 0.180211
vt 0.219183 0.478081
vt 0.805843 0.498522
vt 0.247031 0.164414
vt 0.283606 0.505508
vt 0.323067 0.160963
vt 0.346220 0.531497
vt 0.398184 0.168111
vt 0.410587 0.581788
vt 0.470957 0.189126
vt 0.472697 0.631634
vt 0.538645 0.189872
vt 0.534864 0.587112
vt 0.610283 0.194971
vt 0.597290 0.537591
vt 0.680830 0.205428
vt 0.659329 0.524568
vt 0.750615 0.221440
vt 0.725434 0.510859
vt 0.682564 0.915810
vt 0.191655 0.909466
vt 0.193585 0.909103
vt 0.195437 0.908480
vt 0.197132 0.907493
vt 0.198718 0.906369
vt 0.675391 0.913640
vt 0.677175 0.913456
vt 0.679013 0.913913
vt 0.680902 0.914903
vt 0.163421 0.619044
vt 0.166774 0.633746
vt 0.852733 0.641005
vt 0.858095 0.626948
vt 0.173115 0.641515
vt 0.035350 0.629657
vt 0.269300 0.641096
vt 0.276183 0.651513
vt 0.276957 0.654638
vt 0.333209 0.657619
vt 0.332914 0.667101
vt 0.332207 0.669593
vt 0.392240 0.702394
vt 0.389982 0.710515
vt 0.388750 0.712479
vt 0.419846 0.757926
vt 0.414866 0.765256
vt 0.477986 0.742956
vt 0.499593 0.700384
vt 0.494354 0.708647
vt 0.494912 0.710492
vt 0.581502 0.665247
vt 0.579439 0.670960
vt 0.578669 0.673306
vt 0.656576 0.640127
vt 0.655864 0.647627
vt 0.655203 0.650330
vt 0.741361 0.643316
vt 0.734361 0.657691
vt 0.732402 0.661329
vt 0.185131 0.658213
vt 0.189026 0.654390
vt 0.271775 0.660164
vt 0.261599 0.667974
vt 0.167557 0.675122
vt 0.236489 0.688734
vt 0.325967 0.675977
vt 0.318619 0.683445
vt 0.294933 0.702472
vt 0.379947 0.714865
vt 0.368822 0.718298
vt 0.332087 0.733656
vt 0.402600 0.765932
vt 0.500940 0.748479
vt 0.532890 0.758132
vt 0.505722 0.711063
vt 0.521227 0.711948
vt 0.559310 0.724349
vt 0.583235 0.678851
vt 0.591842 0.686165
vt 0.606220 0.700083
vt 0.655129 0.655996
vt 0.658447 0.664774
vt 0.664653 0.681958
vt 0.732572 0.668955
vt 0.733170 0.676196
vt 0.736396 0.690768
vt 0.826075 0.684555
vt 0.066885 0.667904
vt 0.063782 0.687885
vt 0.144575 0.748175
vt 0.780963 0.783290
vt 0.732502 0.758480
vt 0.685748 0.751197
vt 0.645310 0.759820
vt 0.615985 0.781966
vt 0.280061 0.813268
vt 0.258521 0.782048
vt 0.228005 0.759722
vt 0.190377 0.748201
vt 0.216881 0.771452
vt 0.245600 0.792017
vt 0.182787 0.761874
vt 0.142667 0.763844
vt 0.095140 0.778538
vt 0.729866 0.773635
vt 0.689188 0.766235
vt 0.653250 0.773404
vt 0.626475 0.793732
vt 0.598807 0.823080
vt 0.175970 0.850779
vt 0.178936 0.850449
vt 0.181928 0.850261
vt 0.184584 0.851320
vt 0.677238 0.861751
vt 0.679297 0.859909
vt 0.681790 0.858842
vt 0.684670 0.858736
vt 0.687477 0.859403
vt 0.173411 0.852231
vt 0.181566 0.873192
vt 0.178904 0.873324
vt 0.184207 0.872757
vt 0.186736 0.872170
vt 0.189139 0.871231
vt 0.678430 0.879427
vt 0.680838 0.878831
vt 0.683443 0.878906
vt 0.685896 0.879664
vt 0.688206 0.880647
vt 0.684131 0.898873
vt 0.686270 0.900232
vt 0.681772 0.897868
vt 0.679196 0.897615
vt 0.676785 0.898167
vt 0.194166 0.890346
vt 0.191974 0.891764
vt 0.189629 0.892892
vt 0.187038 0.893607
vt 0.184342 0.893883
vt 0.176275 0.873274
vt 0.181656 0.893897
vt 0.676007 0.880140
vt 0.674401 0.899064
vt 0.690040 0.860588
vt 0.186697 0.853182
vt 0.773328 0.796964
vt 0.270465 0.826402
vt 0.591150 0.810141
vt 0.091493 0.761908
vt 0.822157 0.712575
vt 0.351548 0.775865
vt 0.038378 0.580170
vt 0.104559 0.200313
vt 0.463828 0.719981
vt 0.487176 0.746540
vt 0.412914 0.766350
vt 0.062075 0.659201
vt 0.845124 0.652745
vt 0.387929 0.764080
vt 0.822849 0.693924
vt 0.023739 0.600662
vt 0.470941 0.735229
vt 0.025660 0.617431
vt 0.476212 0.741820
vt 0.683058 0.917726
vt 0.682883 0.915640
vt 0.189673 0.909668
vt 0.677377 0.915234
vt 0.676738 0.917065
vt 0.677110 0.919034
vt 0.673604 0.914224
vt 0.678522 0.920397
vt 0.680453 0.920580
vt 0.682164 0.919557
vt 0.163774 0.604830
vt 0.849021 0.605373
vt 0.133720 0.465518
vt 0.259759 0.626075
vt 0.333828 0.644200
vt 0.397451 0.683887
vt 0.430371 0.743244
vt 0.507642 0.686105
vt 0.583706 0.657729
vt 0.657552 0.631704
vt 0.748176 0.626751
vn 0.988209 -0.022047 -0.151515
vn 0.673803 -0.017179 -0.738712
vn 0.518935 -0.034887 -0.854102
vn 0.983290 -0.049788 -0.175103
vn 0.136844 -0.009807 -0.990544
vn -0.021212 -0.021676 -0.999540
vn -0.516029 -0.004580 -0.856559
vn -0.616105 -0.007712 -0.787627
vn -0.925703 0.005820 -0.378206
vn -0.956662 0.007199 -0.291112
vn -0.987645 0.012063 0.156244
vn -0.983872 0.010934 0.178540
vn -0.763488 0.007474 0.645779
vn -0.847874 0.006823 0.530154
vn -0.212347 -0.002411 0.977191
vn -0.371653 -0.003958 0.928364
vn 0.471546 -0.005692 0.881823
vn 0.344842 -0.016126 0.938522
vn 0.875140 -0.011616 0.483731
vn 0.799028 -0.033871 0.600340
vn 0.174082 0.468019 0.866402
vn 0.174082 0.468019 0.866402
vn 0.174082 0.468020 0.866402
vn 0.174082 0.468020 0.866402
vn 0.174082 0.468020 0.866403
vn 0.174082 0.468019 0.866402
vn 0.174082 0.468020 0.866402
vn 0.174082 0.468020 0.866402
vn 0.174082 0.468019 0.866402
vn 0.174082 0.468020 0.866402
vn 0.249990 -0.337197 -0.907636
vn 0.578977 -0.076632 -0.811734
vn 0.941776 -0.330703 -0.060774
vn 0.674064 -0.730456 -0.109871
vn 0.879807 0.358571 -0.312036
vn 0.946071 0.284001 -0.155861
vn -0.055493 -0.189804 -0.980253
vn 0.131605 0.022652 -0.991043
vn 0.689349 0.722919 -0.046751
vn -0.602005 -0.058211 -0.796367
vn -0.571663 0.097342 -0.814694
vn 0.815847 0.491009 0.305457
vn -0.944528 0.039185 -0.326084
vn -0.914995 0.165482 -0.367966
vn 0.950028 0.304940 0.066771
vn -0.987512 0.019550 0.156327
vn -0.977144 0.139349 0.160534
vn 0.934337 0.274372 -0.227454
vn -0.818527 -0.001245 0.574467
vn -0.779033 0.126934 0.613999
vn 0.913943 0.281069 -0.292760
vn -0.429211 -0.101082 0.897530
vn -0.366258 -0.007592 0.930482
vn 0.919954 0.382700 -0.084999
vn 0.379780 -0.240353 0.893307
vn 0.431750 -0.116222 0.894474
vn 0.523924 0.738139 0.425034
vn 0.548542 -0.340034 0.763858
vn 0.800826 -0.047367 0.597022
vn 0.847987 0.526454 0.061347
vn -0.288255 0.248086 0.924858
vn 0.736527 0.614970 0.281674
vn 0.533718 0.576348 0.618844
vn 0.104883 0.190041 0.976158
vn -0.364236 0.440101 0.820758
vn 0.068855 0.293263 0.953549
vn 0.705361 0.315013 0.635006
vn 0.649611 0.121446 0.750504
vn 0.600366 0.201524 0.773918
vn 0.968088 0.150389 0.200469
vn 0.966000 0.038657 0.255636
vn 0.935100 0.128820 0.330143
vn 0.974096 0.127311 -0.186895
vn 0.982662 0.030045 -0.182955
vn 0.980461 0.107718 -0.164601
vn 0.895753 0.151705 -0.417865
vn 0.866364 0.061076 -0.495664
vn 0.825987 0.141828 -0.545556
vn 0.720147 0.276556 -0.636322
vn 0.508278 0.152260 -0.847626
vn 0.466751 0.316516 -0.825809
vn 0.008932 0.566546 -0.823982
vn -0.203646 0.335458 -0.919780
vn -0.148694 0.494424 -0.856408
vn 0.426695 0.766861 -0.479433
vn -0.560470 0.461576 -0.687620
vn -0.471384 0.674796 -0.567845
vn 0.844083 0.524754 -0.110259
vn -0.763071 0.588718 0.266709
vn -0.554291 0.792563 0.254177
vn -0.390508 0.701683 0.595941
vn -0.405912 0.693674 0.595023
vn -0.482747 0.826024 -0.290929
vn -0.469285 0.833280 -0.292259
vn -0.403058 0.598039 -0.692743
vn -0.376603 0.621458 -0.686994
vn 0.043892 0.455194 -0.889310
vn 0.057006 0.473030 -0.879200
vn 0.645824 0.289844 -0.706330
vn 0.651786 0.291815 -0.700014
vn 0.903012 0.205980 -0.377016
vn 0.903308 0.205152 -0.376760
vn 0.977088 0.198005 0.078053
vn 0.977004 0.198341 0.078255
vn 0.768938 0.234512 0.594759
vn 0.768186 0.235256 0.595437
vn 0.321800 0.311768 0.894005
vn 0.315766 0.308642 0.897236
vn -0.194475 0.457364 0.867755
vn -0.209484 0.445644 0.870355
vn 0.753493 0.249476 0.608285
vn 0.753493 0.249476 0.608285
vn 0.242334 0.269969 0.931875
vn 0.242334 0.269969 0.931875
vn -0.395674 0.279875 0.874707
vn -0.395674 0.279875 0.874707
vn -0.852992 0.277038 0.442329
vn -0.852992 0.277038 0.442328
vn -0.949343 0.275286 -0.151541
vn -0.949343 0.275286 -0.151541
vn -0.663882 0.279273 -0.693734
vn -0.663882 0.279273 -0.693734
vn -0.078901 0.276916 -0.957649
vn -0.078901 0.276916 -0.957649
vn 0.549410 0.257230 -0.794973
vn 0.549410 0.257230 -0.794973
vn 0.891605 0.236352 -0.386236
vn 0.891605 0.236352 -0.386236
vn 0.967131 0.233889 0.099771
vn 0.967131 0.233889 0.099771
vn 0.294133 0.955764 -0.001455
vn 0.294133 0.955764 -0.001455
vn 0.294133 0.955764 -0.001455
vn 0.294133 0.955764 -0.001455
vn 0.293152 0.956065 -0.001606
vn 0.293152 0.956064 -0.001606
vn 0.293152 0.956064 -0.001606
vn 0.293152 0.956064 -0.001606
vn 0.296939 0.954890 -0.003583
vn 0.296939 0.954890 -0.003583
vn 0.296939 0.954890 -0.003583
vn 0.296939 0.954890 -0.003583
vn 0.299544 0.954042 -0.008759
vn 0.299544 0.954042 -0.008759
vn 0.299544 0.954042 -0.008759
vn 0.299544 0.954042 -0.008759
vn 0.300379 0.953813 -0.003603
vn 0.300379 0.953813 -0.003603
vn 0.300379 0.953813 -0.003603
vn 0.300379 0.953813 -0.003603
vn 0.308149 0.951330 0.004017
vn 0.308149 0.951330 0.004017
vn 0.308149 0.951330 0.004017
vn 0.308149 0.951330 0.004017
vn 0.293656 0.955910 0.001609
vn 0.293656 0.955910 0.001609
vn 0.293656 0.955910 0.001609
vn 0.293656 0.955910 0.001609
vn 0.294544 0.955637 0.001154
vn 0.294544 0.955637 0.001154
vn 0.294544 0.955637 0.001154
vn 0.294544 0.955637 0.001154
vn 0.294998 0.955498 0.000258
vn 0.294998 0.955498 0.000258
vn 0.294998 0.955498 0.000258
vn 0.294998 0.955498 0.000258
vn 0.294841 0.955546 -0.000741
vn 0.294841 0.955546 -0.000741
vn 0.294841 0.955546 -0.000741
vn 0.294841 0.955546 -0.000741
vn 0.380925 -0.101994 -0.918963
vn 0.396340 -0.113901 -0.911011
vn 0.412481 -0.126461 -0.902146
vn 0.412481 -0.126461 -0.902146
vn -0.194796 -0.080298 -0.977551
vn -0.194931 -0.081949 -0.977387
vn -0.195786 -0.092552 -0.976269
vn -0.195786 -0.092552 -0.976269
vn -0.726399 -0.026365 -0.686767
vn -0.721094 -0.027034 -0.692310
vn -0.735236 -0.025234 -0.677341
vn -0.735236 -0.025234 -0.677341
vn -0.993742 0.049811 -0.099984
vn -0.994470 0.040074 -0.097080
vn -0.993181 0.056503 -0.101974
vn -0.993181 0.056503 -0.101974
vn -0.861478 0.110122 0.495711
vn -0.848313 0.094417 0.521010
vn -0.869147 0.119756 0.479836
vn -0.869147 0.119756 0.479836
vn -0.408279 0.130858 0.903429
vn -0.390817 0.117201 0.912977
vn -0.425185 0.144187 0.893548
vn -0.425185 0.144187 0.893548
vn 0.197947 0.099507 0.975149
vn 0.197670 0.097834 0.975374
vn 0.199865 0.111190 0.973494
vn 0.199865 0.111190 0.973494
vn 0.709614 0.037100 0.703614
vn 0.715874 0.036402 0.697280
vn 0.725898 0.035264 0.686898
vn 0.725898 0.035264 0.686898
vn 0.989783 -0.045811 0.135023
vn 0.989356 -0.052314 0.135790
vn 0.989356 -0.052314 0.135790
vn 0.990337 -0.036194 0.133880
vn 0.850806 -0.089471 -0.517807
vn 0.863493 -0.104444 -0.493429
vn 0.870980 -0.113734 -0.477974
vn 0.870980 -0.113734 -0.477974
vn 0.971460 0.045903 0.232722
vn 0.971459 0.045903 0.232722
vn 0.988045 -0.013301 0.153592
vn 0.976970 0.029743 0.211294
vn 0.703771 -0.006762 0.710395
vn 0.703771 -0.006762 0.710395
vn 0.700085 0.025865 0.713591
vn 0.702185 0.008115 0.711948
vn 0.192407 -0.052445 0.979913
vn 0.192407 -0.052445 0.979913
vn 0.194668 0.023707 0.980583
vn 0.194794 0.029520 0.980400
vn -0.472331 -0.074087 0.878302
vn -0.472331 -0.074087 0.878302
vn -0.441057 -0.014899 0.897355
vn -0.395295 0.065376 0.916225
vn -0.907353 -0.054898 0.416770
vn -0.907353 -0.054898 0.416770
vn -0.894471 -0.022977 0.446535
vn -0.853318 0.058474 0.518102
vn -0.989509 -0.009374 -0.144171
vn -0.989509 -0.009374 -0.144171
vn -0.991101 -0.000031 -0.133115
vn -0.994226 0.023955 -0.104600
vn -0.737419 0.049739 -0.673602
vn -0.737419 0.049739 -0.673602
vn -0.728967 0.022616 -0.684176
vn -0.718679 -0.007862 -0.695298
vn -0.189951 0.101708 -0.976511
vn -0.189951 0.101708 -0.976511
vn -0.193050 -0.003627 -0.981182
vn -0.192899 0.003948 -0.981211
vn 0.486021 0.121590 -0.865448
vn 0.486021 0.121590 -0.865448
vn 0.391138 -0.045109 -0.919226
vn 0.444952 0.045806 -0.894382
vn 0.928862 0.095672 -0.357857
vn 0.928862 0.095672 -0.357857
vn 0.861145 -0.048019 -0.506087
vn 0.913782 0.054527 -0.402528
s 1
g pCylinder1
usemtl blinn1SG
f 30/154/1 21/2/2 69/3/3 70/178/4
f 21/2/2 22/5/5 68/6/6 69/3/3
f 22/5/5 23/7/7 67/8/8 68/6/6
f 23/7/7 24/9/9 66/10/10 67/8/8
f 24/9/9 25/11/11 65/12/12 66/10/10
f 25/11/11 26/13/13 64/14/14 65/12/12
f 26/13/13 27/15/15 63/16/16 64/14/14
f 27/15/15 28/17/17 62/18/18 63/16/16
f 28/17/17 29/19/19 61/20/20 62/18/18
f 29/19/19 30/1/1 70/4/4 61/20/20
s off
f 120/167/21 111/166/22 112/175/23 113/174/24 114/173/25 115/171/26 116/170/27 117/169/28 118/29/29 119/30/30
s 1
f 59/31/31 31/32/32 40/164/33 60/162/34
f 31/32/32 1/35/35 10/36/36 40/164/33
f 58/37/37 32/38/38 31/32/32 59/31/31
f 32/38/38 2/39/39 1/35/35 31/32/32
f 57/40/40 33/41/41 32/38/38 58/37/37
f 33/41/41 3/42/42 2/39/39 32/38/38
f 56/43/43 34/44/44 33/41/41 57/40/40
f 34/44/44 4/45/45 3/42/42 33/41/41
f 55/46/46 35/47/47 34/44/44 56/43/43
f 35/47/47 5/157/48 4/45/45 34/44/44
f 54/49/49 36/50/50 35/165/47 55/163/46
f 36/50/50 6/51/51 5/48/48 35/165/47
f 53/52/52 37/53/53 36/50/50 54/49/49
f 37/53/53 7/54/54 6/51/51 36/50/50
f 52/55/55 38/56/56 37/53/53 53/52/52
f 38/56/56 8/57/57 7/54/54 37/53/53
f 51/58/58 39/59/59 38/56/56 52/55/55
f 39/59/59 9/60/60 8/57/57 38/56/56
f 60/34/34 40/33/33 39/59/59 51/58/58
f 40/33/33 10/159/36 9/60/60 39/59/59
f 41/61/61 11/62/62 12/63/63 42/64/64
f 80/65/65 41/61/61 42/64/64 79/66/66
f 42/64/64 12/63/63 13/67/67 43/68/68
f 79/66/66 42/64/64 43/68/68 78/69/69
f 43/68/68 13/67/67 14/70/70 44/71/71
f 78/69/69 43/68/68 44/71/71 77/72/72
f 44/71/71 14/70/70 15/73/73 45/160/74
f 77/72/72 44/71/71 45/160/74 76/152/75
f 45/74/74 15/156/73 16/76/76 46/77/77
f 76/75/75 45/74/74 46/77/77 75/78/78
f 46/77/77 16/76/76 17/79/79 47/80/80
f 75/78/78 46/77/77 47/80/80 74/81/81
f 47/80/80 17/79/79 18/82/82 48/83/83
f 74/81/81 47/80/80 48/83/83 73/84/84
f 48/83/83 18/82/82 19/85/85 49/86/86
f 73/84/84 48/83/83 49/86/86 72/87/87
f 49/86/86 19/85/85 20/88/88 50/161/89
f 72/87/87 49/86/86 50/161/89 71/151/90
f 50/89/89 20/158/88 11/62/62 41/61/61
f 71/90/90 50/89/89 41/61/61 80/65/65
f 70/177/4 60/34/34 51/58/58 61/186/20
f 61/186/20 51/58/58 52/55/55 62/185/18
f 62/185/18 52/55/55 53/52/52 63/184/16
f 63/184/16 53/52/52 54/49/49 64/183/14
f 64/183/14 54/49/49 55/163/46 65/155/12
f 65/182/12 55/46/46 56/43/43 66/181/10
f 66/181/10 56/43/43 57/40/40 67/180/8
f 67/180/8 57/40/40 58/37/37 68/179/6
f 68/179/6 58/37/37 59/31/31 69/176/3
f 69/176/3 59/31/31 60/162/34 70/153/4
f 94/91/91 95/150/92 71/90/90 80/65/65
f 95/92/93 96/93/94 72/87/87 71/151/90
f 96/93/95 97/94/96 73/84/84 72/87/87
f 97/94/97 98/95/98 74/81/81 73/84/84
f 98/95/99 99/96/100 75/78/78 74/81/81
f 99/96/101 100/149/102 76/75/75 75/78/78
f 100/97/103 91/98/104 77/72/72 76/152/75
f 91/98/105 92/99/106 78/69/69 77/72/72
f 92/99/107 93/100/108 79/66/66 78/69/69
f 93/100/109 94/91/110 80/65/65 79/66/66
f 1/35/35 2/39/39 12/63/63 11/62/62
f 10/36/36 1/35/35 11/62/62 20/158/88
f 9/60/60 10/159/36 20/88/88 19/85/85
f 8/57/57 9/60/60 19/85/85 18/82/82
f 7/54/54 8/57/57 18/82/82 17/79/79
f 6/51/51 7/54/54 17/79/79 16/76/76
f 5/48/48 6/51/51 16/76/76 15/156/73
f 4/45/45 5/157/48 15/73/73 14/70/70
f 3/42/42 4/45/45 14/70/70 13/67/67
f 2/39/39 3/42/42 13/67/67 12/63/63
f 83/101/111 92/99/106 91/98/105 84/102/112
f 82/103/113 93/100/108 92/99/107 83/101/114
f 81/104/115 94/91/110 93/100/109 82/103/116
f 90/105/117 95/150/92 94/91/91 81/104/118
f 89/106/119 96/93/94 95/92/93 90/147/120
f 88/107/121 97/94/96 96/93/95 89/106/122
f 87/108/123 98/95/98 97/94/97 88/107/124
f 86/109/125 99/96/100 98/95/99 87/108/126
f 85/110/127 100/149/102 99/96/101 86/109/128
f 84/102/129 91/98/104 100/97/103 85/148/130
s off
f 101/111/131 81/104/132 82/103/133 102/112/134
f 102/112/135 82/103/136 83/101/137 103/113/138
f 103/113/139 83/101/140 84/102/141 104/114/142
f 104/114/143 84/102/144 85/148/145 105/146/146
f 105/115/147 85/110/148 86/109/149 106/116/150
f 106/116/151 86/109/152 87/108/153 107/117/154
f 107/117/155 87/108/156 88/107/157 108/118/158
f 108/118/159 88/107/160 89/106/161 109/119/162
f 109/119/163 89/106/164 90/147/165 110/145/166
f 110/120/167 90/105/168 81/104/169 101/111/170
s 4
f 138/121/171 139/122/172 101/111/173 102/112/174
s 5
f 137/123/175 138/121/176 102/112/177 103/113/178
s 6
f 136/124/179 137/123/180 103/113/181 104/114/182
s 7
f 135/125/183 136/124/184 104/114/185 105/146/186
s 8
f 134/126/187 135/143/188 105/115/189 106/116/190
s 9
f 133/127/191 134/126/192 106/116/193 107/117/194
s 10
f 132/128/195 133/127/196 107/117/197 108/118/198
s 11
f 131/129/199 132/128/200 108/118/201 109/119/202
s 12
f 131/129/203 109/119/204 110/145/205 140/130/206
s 13
f 139/122/207 140/141/208 110/120/209 101/111/210
s 12
f 120/21/211 119/30/212 122/131/213 121/132/214
s 11
f 119/30/215 118/29/216 123/133/217 122/131/218
s 10
f 118/29/219 117/28/220 124/134/221 123/133/222
s 9
f 117/28/223 116/27/224 125/135/225 124/134/226
s 8
f 116/27/227 115/172/228 126/144/229 125/135/230
s 7
f 115/26/231 114/25/232 127/137/233 126/136/234
s 6
f 114/25/235 113/24/236 128/138/237 127/137/238
s 5
f 113/24/239 112/23/240 129/139/241 128/138/242
s 4
f 112/23/243 111/22/244 130/140/245 129/139/246
s 13
f 111/22/247 120/168/248 121/142/249 130/140/250
s 12
f 121/132/214 122/131/213 131/129/203 140/130/206
s 11
f 122/131/218 123/133/217 132/128/200 131/129/199
s 10
f 123/133/222 124/134/221 133/127/196 132/128/195
s 9
f 124/134/226 125/135/225 134/126/192 133/127/191
s 8
f 125/135/230 126/144/229 135/143/188 134/126/187
s 7
f 126/136/234 127/137/233 136/124/184 135/125/183
s 6
f 127/137/238 128/138/237 137/123/180 136/124/179
s 5
f 128/138/242 129/139/241 138/121/176 137/123/175
s 4
f 129/139/246 130/140/245 139/122/172 138/121/171
s 13
f 130/140/250 121/142/249 140/141/208 139/122/207
