# This file uses centimeters as units for non-parametric coordinates.

mtllib Coffin_skewed.mtl
g default
v -275.046241 305.930577 941.082013
v 348.750138 305.930577 833.940983
v -612.796883 305.930577 -827.264413
v 77.101076 305.930577 -945.758814
v -694.953283 305.930577 -332.456482
v 319.652073 305.930577 -506.721462
v -323.539548 305.930577 856.847324
v 366.358411 305.930577 738.352923
v -323.539877 255.930536 856.847380
v 366.358082 255.930536 738.352979
v 348.750138 255.930536 833.940983
v -275.046241 255.930536 941.082013
v -612.796883 255.930536 -827.264413
v 77.101076 255.930536 -945.758814
v 319.651744 255.930536 -506.721406
v -694.953612 255.930536 -332.456426
vt 0.172558 0.561783
vt 0.104609 0.543879
vt 0.083934 0.716102
vt 0.172677 0.582303
vt 0.110567 0.716102
vt 0.082802 0.543385
vt 0.110567 0.757427
vt 0.082973 0.499644
vt 0.615629 0.566412
vt 0.628523 0.545596
vt 0.871881 0.545596
vt 0.884775 0.566412
vt 0.615629 0.956314
vt 0.552291 0.848213
vt 0.948113 0.848213
vt 0.884775 0.956314
vt 0.609056 0.460514
vt 0.392473 0.582303
vt 0.083934 0.757427
vt 0.471119 0.716102
vt 0.877136 0.460514
vt 0.104768 0.499395
vt 0.441847 0.397206
vt 0.864293 0.481377
vt 0.392758 0.561783
vt 0.447662 0.328964
vt 0.392473 0.598699
vt 0.470353 0.546617
vt 0.095651 0.329237
vt 0.621899 0.481377
vt 0.609056 0.069740
vt 0.470258 0.498016
vt 0.392758 0.577090
vt 0.471119 0.757427
vt 0.172558 0.577090
vt 0.877136 0.069740
vt 0.172677 0.598699
vt 0.940223 0.178083
vt 0.093311 0.397682
vt 0.545969 0.178083
vt 0.093574 0.351328
vt 0.441356 0.348882
vt 0.095029 0.277825
vt 0.447932 0.278589
vn -0.000000 -1.000000 -0.000000
vn -0.000000 -1.000000 -0.000000
vn -0.000000 -1.000000 -0.000000
vn -0.000000 -1.000000 -0.000000
vn 0.000000 -1.000000 0.000000
vn 0.000000 -1.000000 0.000000
vn -0.000000 -1.000000 -0.000000
vn -0.000000 -1.000000 -0.000000
vn 0.000000 1.000000 0.000000
vn 0.000000 1.000000 0.000000
vn 0.000000 1.000000 0.000000
vn 0.000000 1.000000 0.000000
vn -0.000000 1.000000 -0.000000
vn -0.000000 1.000000 -0.000000
vn -0.000000 1.000000 -0.000000
vn -0.000000 1.000000 -0.000000
vn 0.999765 -0.000006 -0.021699
vn 0.983454 -0.000003 0.181160
vn 0.983454 -0.000003 0.181160
vn 0.999765 -0.000006 -0.021699
vn 0.169278 0.000000 0.985568
vn 0.169278 0.000000 0.985568
vn 0.169278 0.000000 0.985568
vn 0.169278 0.000000 0.985568
vn -0.866646 0.000003 0.498924
vn -0.949709 0.000006 0.313135
vn -0.949709 0.000006 0.313135
vn -0.866646 0.000003 0.498924
vn -0.169278 0.000000 -0.985568
vn -0.169278 0.000000 -0.985568
vn -0.169278 0.000000 -0.985568
vn -0.169278 0.000000 -0.985568
vn 0.875305 -0.000003 -0.483571
vn 0.985568 -0.000006 -0.169278
vn 0.985568 -0.000006 -0.169278
vn 0.875305 -0.000003 -0.483571
vn -0.985568 0.000006 0.169278
vn -0.986494 0.000003 -0.163795
vn -0.986494 0.000003 -0.163795
vn -0.985568 0.000006 0.169278
s 1
g Coffin_top
usemtl blinn1SG
f 9/17/1 10/21/2 11/24/3 12/30/4
f 13/31/5 14/36/6 15/38/7 16/40/8
f 16/40/8 15/38/7 10/21/2 9/17/1
s 2
f 7/9/9 1/10/10 2/11/11 8/12/12
f 3/13/13 5/14/14 6/15/15 4/16/16
f 5/14/14 7/9/9 8/12/12 6/15/15
s 3
f 8/2/17 2/6/18 11/8/19 10/22/20
s off
f 2/4/21 1/18/22 12/27/23 11/37/24
s 4
f 1/3/25 7/5/26 9/7/27 12/19/28
s off
f 3/1/29 4/25/30 14/33/31 13/35/32
s 3
f 4/23/33 6/39/34 15/41/35 14/42/36
s 4
f 5/26/37 3/29/38 13/43/39 16/44/40
s 3
f 6/28/34 8/2/17 10/22/20 15/32/35
s 4
f 7/5/26 5/20/37 16/34/40 9/7/27
g default
v -316.465354 5.000037 900.000000
v 316.465354 5.000037 900.000000
v -316.465354 255.000149 900.000000
v 316.465354 255.000149 900.000000
v -350.000000 255.000149 -900.000000
v 350.000000 255.000149 -900.000000
v -350.000000 5.000037 -900.000000
v 350.000000 5.000037 -900.000000
v 514.731115 255.000149 -426.240188
v -514.731073 255.000149 -426.240188
v -514.731073 5.000037 -426.240188
v 514.731115 5.000037 -426.240188
v 350.000000 255.000149 808.772117
v -350.000000 255.000149 808.772117
v -350.000000 5.000037 808.772117
v 350.000000 5.000037 808.772117
v 514.731115 169.474458 -426.240188
v 350.000000 169.474458 808.772117
v 316.465354 169.474458 900.000000
v -316.465354 169.474458 900.000000
v -350.000000 169.474458 808.772117
v -514.731073 169.474458 -426.240188
v -350.000000 169.474458 -900.000000
v 350.000000 169.474458 -900.000000
v 514.731115 134.481331 -426.240188
v 350.000000 134.481331 808.772117
v 316.465354 134.481331 900.000000
v -316.465354 134.481331 900.000000
v -350.000000 134.481331 808.772117
v -514.731073 134.481331 -426.240188
v -350.000000 134.481331 -900.000000
v 350.000000 134.481331 -900.000000
v 527.099013 161.790018 -436.480969
v 358.401644 161.790018 828.184229
v 324.061406 161.790018 921.659052
v -324.061301 161.790018 921.659052
v -358.401561 161.790018 828.184229
v -527.099013 161.790018 -436.480969
v -358.401561 161.790018 -921.659052
v 358.401644 161.790018 -921.659052
v -323.718879 142.908533 920.646143
v -358.022380 142.908533 827.309400
v -526.533079 142.908533 -436.012924
v -358.022380 142.908533 -920.646143
v 358.022463 142.908533 -920.646143
v 526.532996 142.908533 -436.012924
v 358.022463 142.908533 827.309400
v 323.718879 142.908533 920.646143
v -323.236224 255.000134 -834.667021
v 323.236224 255.000134 -834.667021
v 475.370735 255.000134 -397.134438
v -475.370693 255.000134 -397.134438
v 323.236224 255.000134 743.439031
v -323.236224 255.000134 743.439031
v -323.236224 30.018975 -834.667021
v 323.236224 30.018975 -834.667021
v 475.370735 30.018975 -397.134438
v -475.370693 30.018975 -397.134438
v 323.236224 30.018975 743.439031
v -323.236224 30.018975 743.439031
vt 0.353327 0.990763
vt 0.353664 0.773190
vt 0.495236 0.990693
vt 0.495470 0.773416
vt 0.771388 0.516222
vt 0.771388 0.878091
vt 0.624249 0.516222
vt 0.624249 0.878091
vt 0.158885 0.031160
vt 0.399671 0.030437
vt 0.148304 0.800630
vt 0.286672 0.800635
vt 0.001859 0.951656
vt 0.137558 0.951651
vt 0.286671 0.950988
vt 0.859046 0.440426
vt 0.739573 0.440424
vt 0.386895 0.003153
vt 0.169180 0.003806
vt 0.148304 0.950983
vt 0.893339 0.440846
vt 0.918122 0.882918
vt 0.540180 0.771062
vt 0.894241 0.218558
vt 0.585168 0.767905
vt 0.182122 0.542861
vt 0.422908 0.542139
vt 0.799982 0.882920
vt 0.877957 0.451796
vt 0.727886 0.881017
vt 0.446909 0.772009
vt 0.447115 0.991865
vt 0.818428 0.007666
vt 0.091506 0.800799
vt 0.091507 0.951654
vt 0.721260 0.516222
vt 0.721260 0.878091
vt 0.239715 0.800633
vt 0.219395 0.950985
vt 0.785357 0.883719
vt 0.426567 0.772018
vt 0.426794 0.992052
vt 0.585391 0.838502
vt 0.801065 0.440426
vt 0.071579 0.951654
vt 0.700139 0.516222
vt 0.700139 0.878091
vt 0.219395 0.800632
vt 0.873949 0.445191
vt 0.785222 0.941117
vt 0.442253 0.770166
vt 0.442441 0.993704
vt 0.814375 0.003903
vt 0.086780 0.797579
vt 0.086780 0.952068
vt 0.716424 0.511879
vt 0.716424 0.882434
vt 0.234896 0.800220
vt 0.431811 0.993775
vt 0.805408 0.004073
vt 0.076613 0.797727
vt 0.076613 0.952044
vt 0.705357 0.512075
vt 0.705357 0.882238
vt 0.224528 0.800244
vt 0.865081 0.445493
vt 0.726774 0.940656
vt 0.431610 0.770298
vt 0.507702 0.001992
vt 0.509079 0.514912
vt 0.479077 0.495332
vt 0.477805 0.021634
vt 0.909914 0.051757
vt 0.914350 0.204803
vt 0.869977 0.204462
vt 0.865881 0.063119
vt 0.471559 0.139947
vt 0.470247 0.316920
vt 0.457669 0.303767
vt 0.458881 0.140328
vt 0.716734 0.003416
vt 0.716303 0.498589
vt 0.704792 0.475614
vt 0.705190 0.018305
vt 0.733431 0.002791
vt 0.732779 0.489987
vt 0.721267 0.475138
vt 0.721870 0.025197
vt 0.888405 0.208866
vt 0.887385 0.449382
vt 0.878694 0.440149
vt 0.879637 0.218025
vt 0.473130 0.400099
vt 0.119015 0.401161
vt 0.859046 0.007666
vt 0.726467 0.957121
vt 0.137558 0.800797
vt 0.918122 0.451797
vt 0.865082 0.886497
vt 0.873949 0.886666
vt 0.224528 0.954047
vt 0.234895 0.954194
vt 0.805407 0.446754
vt 0.071579 0.800800
vt 0.539186 0.839388
vt 0.801066 0.007666
vt 0.814375 0.447057
vt 0.538909 0.858488
vt 0.877957 0.882917
vt 0.239714 0.950985
vt 0.001859 0.800802
vt 0.739574 0.007664
vt 0.860788 0.882918
vt 0.860788 0.451796
vt 0.818429 0.440427
vt 0.585454 0.858260
vt 0.785185 0.956951
vt 0.799981 0.451799
vt 0.785093 0.996246
vt 0.725704 0.998008
vt 0.778439 0.944701
vt 0.716494 0.944364
vt 0.715776 0.953518
vt 0.778072 0.953484
vt 0.585611 0.907834
vt 0.538213 0.906368
vt 0.592739 0.842556
vt 0.543745 0.843347
vt 0.543835 0.853939
vt 0.593181 0.853531
vt 0.931314 0.207667
vt 0.930328 0.451922
vt 0.001859 0.573080
vt 0.001859 0.002780
vt 0.113174 0.002780
vt 0.113174 0.573080
vt 0.432041 0.762410
vt 0.432041 0.517018
vt 0.562678 0.517018
vt 0.562678 0.762410
vt 0.219696 0.785751
vt 0.219696 0.545962
vt 0.347825 0.545962
vt 0.347825 0.785751
vt 0.611435 0.510696
vt 0.611435 0.002925
vt 0.699366 0.002925
vt 0.699366 0.510696
vt 0.516246 0.510859
vt 0.516246 0.002453
vt 0.605661 0.002453
vt 0.605661 0.510859
vt 0.115354 0.793069
vt 0.115354 0.548311
vt 0.212417 0.548311
vt 0.212416 0.793069
vn 0.000000 0.000000 1.000000
vn 0.000000 0.000000 1.000000
vn 0.000000 -0.173940 0.984756
vn 0.000000 -0.173940 0.984756
vn 0.000000 1.000000 0.000000
vn 0.000000 1.000000 0.000000
vn 0.000000 1.000000 0.000000
vn 0.000000 1.000000 0.000000
vn 0.000000 -0.176317 -0.984333
vn 0.000000 -0.176317 -0.984333
vn 0.000000 0.000000 -1.000000
vn 0.000000 0.000000 -1.000000
vn 0.000000 1.000000 0.000000
vn 0.000000 1.000000 0.000000
vn 0.000000 1.000000 0.000000
vn 0.000000 1.000000 0.000000
vn 0.938595 0.000000 0.345020
vn 0.989010 0.000000 0.147852
vn 0.985456 -0.084848 0.147232
vn 0.933552 -0.103529 0.343164
vn -0.989010 0.000000 0.147852
vn -0.938595 0.000000 0.345020
vn -0.933552 -0.103529 0.343164
vn -0.985456 -0.084848 0.147232
vn -0.944531 0.000000 -0.328423
vn -1.000000 0.000000 0.000000
vn -0.995114 -0.098732 0.000345
vn -0.939194 -0.106157 -0.326567
vn 0.000000 1.000000 -0.000000
vn 0.000000 1.000000 0.000000
vn 0.000000 1.000000 0.000000
vn 0.000000 1.000000 -0.000000
vn 0.939194 -0.106157 -0.326567
vn 0.995114 -0.098731 0.000345
vn 1.000000 0.000000 0.000000
vn 0.944531 0.000000 -0.328423
vn 0.989010 0.000000 0.147852
vn 0.980398 0.131820 0.146432
vn 0.988129 0.153626 0.000514
vn 1.000000 0.000000 0.000000
vn 0.926559 0.159654 0.340587
vn 0.938595 0.000000 0.345020
vn 0.000000 0.267614 0.963526
vn 0.000000 0.267614 0.963526
vn 0.000000 0.000000 1.000000
vn 0.000000 0.000000 1.000000
vn -0.980399 0.131820 0.146432
vn -0.926559 0.159653 0.340587
vn -0.938595 0.000000 0.345020
vn -0.989010 0.000000 0.147852
vn -0.988129 0.153625 0.000514
vn -1.000000 0.000000 0.000000
vn -0.931804 0.163607 -0.323997
vn -0.944531 0.000000 -0.328423
vn 0.000000 0.000000 -1.000000
vn 0.000000 0.000000 -1.000000
vn 0.000000 0.271295 -0.962496
vn 0.000000 0.271295 -0.962496
vn 0.931804 0.163607 -0.323997
vn 0.944531 0.000000 -0.328423
vn 0.924303 -0.355612 0.138582
vn 0.928374 -0.371643 -0.001600
vn 0.831830 -0.463268 0.305683
vn 0.000000 -0.566843 0.823826
vn 0.000000 -0.566844 0.823825
vn -0.831831 -0.463265 0.305683
vn -0.924303 -0.355610 0.138582
vn -0.928375 -0.371641 -0.001600
vn -0.830716 -0.475898 -0.288845
vn 0.000000 -0.560942 -0.827855
vn 0.000000 -0.560941 -0.827856
vn 0.830716 -0.475899 -0.288845
vn 0.928619 0.343895 0.139298
vn 0.934859 0.355016 -0.001893
vn 0.835991 0.454700 0.307192
vn 0.000000 0.542963 0.839757
vn 0.000000 0.542963 0.839757
vn -0.928619 0.343895 0.139298
vn -0.835991 0.454699 0.307192
vn -0.934858 0.355016 -0.001893
vn -0.834971 0.467477 -0.290324
vn 0.000000 0.535194 -0.844729
vn 0.000000 0.535195 -0.844729
vn 0.834971 0.467478 -0.290324
vn 0.000000 1.000000 0.000000
vn 0.000000 1.000000 0.000000
vn 0.000000 1.000000 0.000000
vn 0.000000 1.000000 0.000000
vn -0.000000 1.000000 0.000000
vn -0.000000 1.000000 0.000000
vn -0.000000 1.000000 0.000000
vn -0.000000 1.000000 0.000000
vn 0.000000 1.000000 0.000000
vn 0.000000 1.000000 0.000000
vn 0.000000 1.000000 0.000000
vn 0.000000 1.000000 0.000000
vn -0.000000 1.000000 -0.000000
vn -0.000000 1.000000 -0.000000
vn -0.000000 1.000000 -0.000000
vn -0.000000 1.000000 -0.000000
vn 0.000000 1.000000 -0.000000
vn 0.000000 1.000000 -0.000000
vn 0.000000 1.000000 -0.000000
vn 0.000000 1.000000 -0.000000
vn 0.000000 1.000000 -0.000000
vn 0.000000 1.000000 -0.000000
vn 0.000000 1.000000 -0.000000
vn 0.000000 1.000000 -0.000000
vn 0.000000 0.000000 1.000000
vn 0.000000 0.000000 1.000000
vn 0.000000 0.000000 1.000000
vn 0.000000 0.000000 1.000000
vn -0.944531 0.000000 0.328423
vn -0.944531 0.000000 0.328423
vn -0.944531 0.000000 0.328423
vn -0.944531 0.000000 0.328423
vn 0.944531 0.000000 0.328423
vn 0.944531 0.000000 0.328423
vn 0.944531 0.000000 0.328423
vn 0.944531 0.000000 0.328423
vn -0.991221 0.000000 -0.132213
vn -0.991221 0.000000 -0.132213
vn -0.991221 0.000000 -0.132213
vn -0.991221 0.000000 -0.132213
vn 0.991221 0.000000 -0.132213
vn 0.991221 0.000000 -0.132213
vn 0.991221 0.000000 -0.132213
vn 0.991221 0.000000 -0.132213
vn 0.000000 0.000000 -1.000000
vn 0.000000 0.000000 -1.000000
vn 0.000000 0.000000 -1.000000
vn 0.000000 0.000000 -1.000000
s 1
g pCube39
usemtl blinn2SG
f 17/45/41 18/46/42 43/85/43 44/86/44
s off
f 19/65/45 20/68/46 29/175/47 30/176/48
s 2
f 47/90/49 48/91/50 24/52/51 23/51/52
s 3
f 31/53/53 17/63/54 18/62/55 32/54/56
s 4
f 18/74/57 32/84/58 42/94/59 43/111/60
s 5
f 31/67/61 17/69/62 44/87/63 45/149/64
f 23/57/65 27/155/66 46/148/67 47/89/68
s 3
f 23/70/69 27/138/70 28/137/71 24/71/72
s 4
f 48/92/73 41/83/74 28/64/75 24/55/76
s 5
f 27/61/66 31/156/61 45/150/64 46/88/67
s 3
f 27/138/70 31/53/53 32/54/56 28/137/71
s 4
f 42/157/59 32/72/58 28/162/75 41/158/74
f 29/66/77 34/153/78 33/73/79 25/142/80
f 35/140/81 34/161/78 29/163/77 20/164/82
s 1
f 36/76/83 35/75/84 20/48/85 19/47/86
s 5
f 37/152/87 36/160/88 19/169/89 30/170/90
f 38/159/91 37/77/87 30/139/90 26/60/92
f 39/79/93 38/78/91 26/141/92 21/58/94
s 2
f 21/49/95 22/50/96 40/81/97 39/80/98
s 4
f 25/59/80 33/154/79 40/82/99 22/56/100
f 63/143/101 42/157/59 41/158/74 62/110/102
f 43/111/60 42/94/59 63/165/101 64/166/103
s 1
f 44/86/44 43/85/43 64/112/104 57/103/105
s 5
f 45/149/64 44/87/63 57/171/106 58/172/107
f 46/88/67 45/150/64 58/104/107 59/147/108
f 47/89/68 46/148/67 59/105/108 60/106/109
s 2
f 60/107/110 61/108/111 48/91/50 47/90/49
s 4
f 61/109/112 62/145/102 41/83/74 48/92/73
f 34/153/78 50/144/113 49/93/114 33/73/79
f 51/167/115 50/168/113 34/161/78 35/140/81
s 1
f 52/96/116 51/95/117 35/75/84 36/76/83
s 5
f 53/173/118 52/174/119 36/160/88 37/152/87
f 54/151/120 53/97/118 37/77/87 38/159/91
f 55/99/121 54/98/120 38/78/91 39/79/93
s 2
f 39/80/98 40/81/97 56/101/122 55/100/123
s 4
f 40/82/99 33/154/79 49/146/114 56/102/124
s 5
f 58/172/107 57/171/106 52/174/119 53/173/118
f 59/147/108 58/104/107 53/97/118 54/151/120
f 60/106/109 59/105/108 54/98/120 55/99/121
s 2
f 55/100/123 56/101/122 61/108/111 60/107/110
s 4
f 56/102/124 49/146/114 62/145/102 61/109/112
f 50/144/113 63/143/101 62/110/102 49/93/114
f 64/166/103 63/165/101 50/168/113 51/167/115
s 1
f 57/103/105 64/112/104 51/95/117 52/96/116
s off
f 22/113/125 21/114/126 65/115/127 66/116/128
f 25/117/129 22/118/130 66/119/131 67/120/132
f 21/121/133 26/122/134 68/123/135 65/124/136
f 29/125/137 25/126/138 67/127/139 69/128/140
f 26/129/141 30/130/142 70/131/143 68/132/144
f 30/133/145 29/134/146 69/135/147 70/136/148
f 66/177/149 65/178/150 71/179/151 72/180/152
f 67/181/153 66/182/154 72/183/155 73/184/156
f 65/185/157 68/186/158 74/187/159 71/188/160
f 69/189/161 67/190/162 73/191/163 75/192/164
f 68/193/165 70/194/166 76/195/167 74/196/168
f 70/197/169 69/198/170 75/199/171 76/200/172
