# This file uses centimeters as units for non-parametric coordinates.

mtllib Full_grass_tile.mtl
g default
v -61.879951 2.087984 47.132217
v 38.120049 2.087984 47.132217
v -61.879951 3.087984 47.132217
v 38.120049 3.087984 47.132217
v -61.879951 3.087984 -52.867794
v 38.120049 3.087984 -52.867794
v -61.879951 2.087984 -52.867794
v 38.120049 2.087984 -52.867794
vt 0.001389 0.666003
vt 0.001389 0.333997
vt 0.023780 0.666003
vt 0.023780 0.333997
vt 0.028132 0.450527
vt 0.028132 0.004574
vt 0.053664 0.450527
vt 0.053664 0.004574
vt 0.419218 0.373522
vt 0.420108 0.059236
vt 0.001389 0.001992
vt 0.023780 0.001992
vt 0.001389 0.998008
vt 0.023780 0.998008
vt 0.077783 0.494640
vt 0.078932 0.168748
vt 0.399227 0.173161
vt 0.398138 0.490418
vt 0.728741 0.064020
vt 0.727490 0.369451
vn 0.000000 0.000000 1.000000
vn 0.000000 0.000000 1.000000
vn 0.000000 0.000000 1.000000
vn 0.000000 0.000000 1.000000
vn 0.000000 1.000000 0.000000
vn 0.000000 1.000000 0.000000
vn 0.000000 1.000000 0.000000
vn 0.000000 1.000000 0.000000
vn 0.000000 0.000000 -1.000000
vn 0.000000 0.000000 -1.000000
vn 0.000000 0.000000 -1.000000
vn 0.000000 0.000000 -1.000000
vn 0.000000 -1.000000 0.000000
vn 0.000000 -1.000000 0.000000
vn 0.000000 -1.000000 0.000000
vn 0.000000 -1.000000 0.000000
vn 1.000000 0.000000 0.000000
vn 1.000000 0.000000 0.000000
vn 1.000000 0.000000 0.000000
vn 1.000000 0.000000 0.000000
vn -1.000000 0.000000 0.000000
vn -1.000000 0.000000 0.000000
vn -1.000000 0.000000 0.000000
vn -1.000000 0.000000 0.000000
s off
g Full_floor
usemtl blinn4SG
f 1/1/1 2/2/2 4/4/3 3/3/4
f 3/15/5 4/16/6 6/17/7 5/18/8
f 5/5/9 6/6/10 8/8/11 7/7/12
f 7/9/13 8/10/14 2/19/15 1/20/16
f 2/2/17 8/11/18 6/12/19 4/4/20
f 7/13/21 1/1/22 3/3/23 5/14/24
